<svg width="869" height="336" viewBox="0 0 869 336" fill="none" xmlns="http://www.w3.org/2000/svg">
<path d="M868 328.5C863.5 327.5 856 332.5 849.103 331.818C845.391 331.818 841.68 331.818 837.968 331.818C827.095 331.818 816.693 331.697 805.941 332.944C784.977 335.374 760.276 335.655 740.635 327.939C733.731 325.227 726.746 321.037 720.868 316.43C714.997 311.828 707.474 307.514 703.103 301.417C693.993 288.71 686.418 276.242 679.395 262.196C675.649 254.704 670.332 249.556 667.635 241.24C665.248 233.881 666.447 225.111 666.447 217.47C666.447 195.887 670.614 168.099 661.38 147.785C659.479 143.602 659.196 140.873 656.313 136.776C650.711 128.816 647.401 119.519 641.675 111.567C632.64 99.0178 628.893 82.6231 619.782 69.9686C610.312 56.8166 600.437 44.0566 585.315 37.4408C574.187 32.5724 561.354 34.4195 549.847 36.565C541.577 38.1068 533.886 42.111 526.452 45.948C509.013 54.9485 492.017 66.5674 475.533 77.2248C439.952 100.23 403.383 127.401 358.308 121.888C347.727 120.594 338.125 118.902 331.535 109.94C326.67 103.324 323.095 97.1364 322.152 88.8598C320.552 74.8179 325.335 64.1542 339.917 64.9643C344.196 65.202 348.114 71.7246 349.425 75.098C351.332 79.9995 349.281 85.8132 348.988 90.7989C348.666 96.2622 348.179 100.857 346.423 106.125C344.871 110.78 335.701 118.438 331.285 120.137C323.337 123.193 311.226 119.921 304.012 116.133C292.368 110.02 282.12 94.1653 282.493 80.7278C282.689 73.6642 288.155 60.9608 295.379 58.3336C300.858 56.3412 310.407 58.6517 315.709 60.523C338.637 68.615 361.487 85.8922 367.503 110.628C369.537 118.989 370.032 128.652 369.005 137.214C367.232 151.984 357.224 163.393 348.925 175.059C338.268 190.038 328.315 199.798 312.269 209.088C295.924 218.55 278.885 227.78 261.225 234.547C229 246.895 231.5 256 203.5 264C203.5 264 173 272.5 152 259.5C141.5 248 138.887 242.756 127 244.5C103.387 242.256 91.0001 237 73.8144 248C63.3144 251.5 62.5001 274.5 66.0001 283C72.0001 295 91.1262 296.732 99.0001 296C108.757 295.092 127.846 282.165 135 274.5C141.884 267.124 155.644 247.276 149.5 240C143.424 232.804 110.67 235.028 102.839 230.231C92.0802 223.64 82.3385 215.786 73.8144 206.46C61.2919 192.761 52.8105 179.722 54.6731 160.546C56.2287 144.53 59.765 127.623 67.434 113.381C86.1227 103.769 120.6 79.7414 109 60.523C94.5 36.5 79.0966 -22.2406 14 11C-9.50004 23 1.50001 43.023 29 60.523" stroke="#C7C8D9" stroke-width="2" stroke-linecap="round" stroke-linejoin="round" stroke-dasharray="6 8"/>
</svg>